<svg width="1400" height="560" viewBox="0 0 1400 560" xmlns="http://www.w3.org/2000/svg">
  <defs>
    <linearGradient id="bg" x1="0" y1="0" x2="1" y2="1">
      <stop offset="0" stop-color="#11151b"/>
      <stop offset="1" stop-color="#05070a"/>
    </linearGradient>
    <radialGradient id="glow" cx="0.25" cy="0.1" r="0.8">
      <stop offset="0" stop-color="#1d9bf0" stop-opacity="0.30"/>
      <stop offset="0.6" stop-color="#1d9bf0" stop-opacity="0"/>
    </radialGradient>
    <linearGradient id="tile" x1="0" y1="0" x2="0" y2="1">
      <stop offset="0" stop-color="#1b2027"/>
      <stop offset="1" stop-color="#0a0c10"/>
    </linearGradient>
    <linearGradient id="hair" x1="0" y1="0" x2="0" y2="1">
      <stop offset="0" stop-color="#ffffff" stop-opacity="0.22"/>
      <stop offset="0.5" stop-color="#ffffff" stop-opacity="0"/>
    </linearGradient>
  </defs>

  <rect width="1400" height="560" fill="url(#bg)"/>
  <rect width="1400" height="560" fill="url(#glow)"/>

  <g transform="translate(120,196)">
    <rect width="168" height="168" rx="40" fill="url(#tile)"/>
    <rect x="0.5" y="0.5" width="167" height="167" rx="39.5" fill="none" stroke="url(#hair)" stroke-width="2"/>
    <rect x="46" y="58" width="78" height="58" rx="13" fill="#ffffff" opacity="0.10"/>
    <g transform="rotate(-7 84 80)">
      <rect x="40" y="48" width="88" height="64" rx="16" fill="#eef4f9"/>
      <circle cx="60" cy="68" r="8" fill="#1d9bf0"/>
      <rect x="74" y="62" width="42" height="6" rx="3" fill="#9fb2c4"/>
      <rect x="74" y="74" width="28" height="6" rx="3" fill="#c4d2de"/>
      <rect x="50" y="92" width="66" height="6" rx="3" fill="#c9d6e2"/>
    </g>
    <rect x="50" y="134" width="68" height="7" rx="3.5" fill="#1d9bf0"/>
  </g>

  <text x="340" y="270" font-family="-apple-system, system-ui, sans-serif" font-size="84" font-weight="800" fill="#f2f4f7" letter-spacing="-2">FloatX</text>
  <text x="344" y="330" font-family="-apple-system, system-ui, sans-serif" font-size="30" font-weight="500" fill="#8b98a5">your x timeline, drifting by one post at a time — in a floating window.</text>
  <text x="344" y="376" font-family="-apple-system, system-ui, sans-serif" font-size="24" font-weight="500" fill="#5b6570">no api. no cost. it reads the x tab you already have open.</text>
</svg>
